<?xml version="1.0" standalone="no"?>
<!DOCTYPE svg PUBLIC "-//W3C//DTD SVG 20010904//EN"
 "http://www.w3.org/TR/2001/REC-SVG-20010904/DTD/svg10.dtd">
<svg version="1.0" xmlns="http://www.w3.org/2000/svg"
 width="700.000000pt" height="700.000000pt" viewBox="0 0 700.000000 700.000000"
 preserveAspectRatio="xMidYMid meet">
<metadata>
Created by potrace 1.11, written by Peter Selinger 2001-2013
</metadata>
<g transform="translate(0.000000,700.000000) scale(0.100000,-0.100000)"
fill="#000000" stroke="none">
<path d="M3449 6287 c-30 -33 -81 -90 -114 -127 -51 -56 -187 -207 -220 -244
-14 -16 -188 -208 -200 -222 -5 -6 -41 -45 -79 -87 -38 -43 -78 -88 -90 -101
-12 -12 -51 -56 -87 -97 -37 -41 -78 -86 -90 -100 -13 -14 -58 -63 -99 -109
-41 -46 -82 -91 -90 -100 -8 -8 -49 -53 -90 -100 -41 -46 -82 -91 -90 -100
-15 -16 -137 -152 -168 -187 -17 -20 -145 -162 -192 -213 -43 -47 -92 -102
-170 -189 -41 -46 -90 -100 -107 -120 l-33 -36 0 -1747 c0 -962 3 -1748 8
-1749 4 0 844 -2 1867 -3 1422 -1 1870 1 1903 10 62 18 111 59 138 118 23 50
24 55 21 321 -2 243 -4 274 -21 305 -18 33 -83 100 -98 100 -4 0 -19 5 -35 11
l-28 11 37 12 c49 18 91 53 120 101 22 39 23 46 25 315 2 256 1 278 -18 314
-10 22 -29 51 -42 64 -25 27 -88 62 -114 63 -10 0 -1 7 20 14 58 22 94 52 124
103 l28 47 3 235 c2 129 1 258 -3 287 -9 75 -53 135 -122 170 l-56 27 40 13
c22 8 57 30 76 50 62 61 68 96 66 384 -1 283 -5 302 -73 368 -59 58 -57 57
-906 57 l-775 -1 2 995 c1 664 -1 1008 -8 1035 -20 76 -83 135 -165 153 l-41
9 -54 -60z"/>
</g>
</svg>
