<?xml version="1.0" encoding="UTF-8" standalone="no"?>
<!-- Created with Inkscape (http://www.inkscape.org/) -->

<svg
   xmlns:dc="http://purl.org/dc/elements/1.1/"
   xmlns:cc="http://creativecommons.org/ns#"
   xmlns:rdf="http://www.w3.org/1999/02/22-rdf-syntax-ns#"
   xmlns:svg="http://www.w3.org/2000/svg"
   xmlns="http://www.w3.org/2000/svg"
   xmlns:xlink="http://www.w3.org/1999/xlink"
   xmlns:sodipodi="http://sodipodi.sourceforge.net/DTD/sodipodi-0.dtd"
   xmlns:inkscape="http://www.inkscape.org/namespaces/inkscape"
   width="256"
   height="256"
   viewBox="0 0 67.733332 67.733335"
   version="1.1"
   id="svg8"
   inkscape:version="0.92.3 (2405546, 2018-03-11)"
   sodipodi:docname="sgud.svg">
  <defs
     id="defs2">
    <linearGradient
       inkscape:collect="always"
       id="linearGradient841">
      <stop
         style="stop-color:#aa0088;stop-opacity:1"
         offset="0"
         id="stop837" />
      <stop
         style="stop-color:#ff00cc;stop-opacity:1"
         offset="1"
         id="stop839" />
    </linearGradient>
    <linearGradient
       inkscape:collect="always"
       xlink:href="#linearGradient841"
       id="linearGradient843"
       x1="48"
       y1="96"
       x2="128"
       y2="56"
       gradientUnits="userSpaceOnUse"
       gradientTransform="matrix(0.26458333,0,0,0.26458333,2.1166671,231.38332)" />
  </defs>
  <sodipodi:namedview
     id="base"
     pagecolor="#ffffff"
     bordercolor="#666666"
     borderopacity="1.0"
     inkscape:pageopacity="0.0"
     inkscape:pageshadow="2"
     inkscape:zoom="0.98994949"
     inkscape:cx="-358.06712"
     inkscape:cy="-25.756702"
     inkscape:document-units="mm"
     inkscape:current-layer="layer1"
     showgrid="true"
     units="px"
     inkscape:window-width="1920"
     inkscape:window-height="1015"
     inkscape:window-x="0"
     inkscape:window-y="40"
     inkscape:window-maximized="1">
    <inkscape:grid
       type="xygrid"
       id="grid815"
       empspacing="2" />
  </sodipodi:namedview>
  <metadata
     id="metadata5">
    <rdf:RDF>
      <cc:Work
         rdf:about="">
        <dc:format>image/svg+xml</dc:format>
        <dc:type
           rdf:resource="http://purl.org/dc/dcmitype/StillImage" />
        <dc:title></dc:title>
      </cc:Work>
    </rdf:RDF>
  </metadata>
  <g
     inkscape:label="Layer 1"
     inkscape:groupmode="layer"
     id="layer1"
     transform="translate(0,-229.26665)">
    <path
       style="opacity:1;fill:#aa0088;fill-opacity:1;stroke:none;stroke-width:5;stroke-linecap:round;stroke-linejoin:bevel;stroke-miterlimit:4;stroke-dasharray:none;stroke-opacity:1;paint-order:stroke fill markers"
       d="M 56 104 L 56 106 L 56 112 L 56 128 L 56 134 L 56 136 L 56 138 L 56 144 L 56 160 L 56 166 L 56 168 L 56 176 L 56 192 L 56 200 L 56 202 L 56 208 L 56 224 L 56 230 L 56 232 L 58 232 L 192 232 C 196.432 232 200 228.43199 200 224 L 200 208 C 200 203.56797 196.432 200 192 200 C 196.43202 200 200 196.43203 200 192 L 200 176 C 200 171.56797 196.43202 168 192 168 C 196.43197 168 200 164.43195 200 160 L 200 144 C 200 139.56805 196.43197 136 192 136 C 196.43199 136 200 132.43199 200 128 L 200 112 C 200 107.56801 196.43199 104 192 104 L 58 104 L 56 104 z "
       transform="matrix(0.26458333,0,0,0.26458333,0,229.26665)"
       id="rect817" />
    <path
       inkscape:connector-curvature="0"
       style="opacity:1;fill:url(#linearGradient843);fill-opacity:1;stroke:none;stroke-width:1.32291663;stroke-linecap:round;stroke-linejoin:bevel;stroke-miterlimit:4;stroke-dasharray:none;stroke-opacity:1;paint-order:stroke fill markers"
       d="m 33.866667,235.61665 -19.05,21.16667 h 2.116667 15.780432 1.152901 2.116666 v -2.11667 -3.1657 -13.76763 c 0,-1.17263 -0.944033,-2.11667 -2.116666,-2.11667 z"
       id="rect829" />
  </g>
</svg>
